ffmpeg started on 2016-12-07 at 20:38:03
Report written to "Output/x264/results/ffmpeg/crowd_run_2160p50slower2000k.log"
Command line:
Tools/ffmpeg/ffmpeg -benchmark -y -i Input/y4m/crowd_run_2160p50.y4m -c:v libx264 -preset slower -b:v 2000k -an Output/x264/encoded/crowd_run_2160p50slower2000k.mkv
ffmpeg version N-82227-gdb23fde Copyright (c) 2000-2016 the FFmpeg developers
  built with gcc 5.4.0 (Ubuntu 5.4.0-6ubuntu1~16.04.2) 20160609
  configuration: --prefix=/home/jaroslav/ffmpeg_build --pkg-config-flags=--static --extra-cflags=-I/home/jaroslav/ffmpeg_build/include --extra-ldflags=-L/home/jaroslav/ffmpeg_build/lib --bindir=/home/jaroslav/bin --enable-gpl --enable-libass --enable-libfdk-aac --enable-libfreetype --enable-libmp3lame --enable-libopus --enable-libtheora --enable-libvorbis --enable-libvpx --enable-libx264 --enable-libx265 --enable-nvenc --enable-libmfx --enable-libxvid --enable-libgsm --enable-libopencore-amrnb --enable-version3 --enable-nonfree
  libavutil      55. 35.100 / 55. 35.100
  libavcodec     57. 66.101 / 57. 66.101
  libavformat    57. 57.100 / 57. 57.100
  libavdevice    57.  2.100 / 57.  2.100
  libavfilter     6. 66.100 /  6. 66.100
  libswscale      4.  3.100 /  4.  3.100
  libswresample   2.  4.100 /  2.  4.100
  libpostproc    54.  2.100 / 54.  2.100
Input #0, yuv4mpegpipe, from 'Input/y4m/crowd_run_2160p50.y4m':
  Duration: 00:00:10.00, start: 0.000000, bitrate: 4976642 kb/s
    Stream #0:0: Video: rawvideo (I420 / 0x30323449), yuv420p(progressive), 3840x2160, SAR 1:1 DAR 16:9, 50 fps, 50 tbr, 50 tbn, 50 tbc
[libx264 @ 0x43d41c0] using SAR=1/1
[libx264 @ 0x43d41c0] DPB size (8 frames, 259200 mbs) > level limit (5 frames, 184320 mbs)
[libx264 @ 0x43d41c0] using cpu capabilities: MMX2 SSE2Fast SSSE3 SSE4.2 AVX FMA3 AVX2 LZCNT BMI2
[libx264 @ 0x43d41c0] profile High, level 5.2
[libx264 @ 0x43d41c0] 264 - core 148 - H.264/MPEG-4 AVC codec - Copyleft 2003-2016 - http://www.videolan.org/x264.html - options: cabac=1 ref=8 deblock=1:0:0 analyse=0x3:0x133 me=umh subme=9 psy=1 psy_rd=1.00:0.00 mixed_ref=1 me_range=16 chroma_me=1 trellis=2 8x8dct=1 cqm=0 deadzone=21,11 fast_pskip=1 chroma_qp_offset=-2 threads=6 lookahead_threads=1 sliced_threads=0 nr=0 decimate=1 interlaced=0 bluray_compat=0 constrained_intra=0 bframes=3 b_pyramid=2 b_adapt=2 b_bias=0 direct=3 weightb=1 open_gop=0 weightp=2 keyint=250 keyint_min=25 scenecut=40 intra_refresh=0 rc_lookahead=60 rc=abr mbtree=1 bitrate=2000 ratetol=1.0 qcomp=0.60 qpmin=0 qpmax=69 qpstep=4 ip_ratio=1.40 aq=1:1.00
Output #0, matroska, to 'Output/x264/encoded/crowd_run_2160p50slower2000k.mkv':
  Metadata:
    encoder         : Lavf57.57.100
    Stream #0:0: Video: h264 (libx264) (H264 / 0x34363248), yuv420p, 3840x2160 [SAR 1:1 DAR 16:9], q=-1--1, 2000 kb/s, 50 fps, 1k tbn, 50 tbc
    Metadata:
      encoder         : Lavc57.66.101 libx264
    Side data:
      cpb: bitrate max/min/avg: 0/0/2000000 buffer size: 0 vbv_delay: -1
Stream mapping:
  Stream #0:0 -> #0:0 (rawvideo (native) -> h264 (libx264))
Press [q] to stop, [?] for help
frame=   19 fps=0.0 q=0.0 size=       0kB time=00:00:00.00 bitrate=N/A speed=   0x    frame=   34 fps= 32 q=0.0 size=       0kB time=00:00:00.00 bitrate=N/A speed=   0x    frame=   44 fps= 28 q=0.0 size=       0kB time=00:00:00.00 bitrate=N/A speed=   0x    frame=   54 fps= 26 q=0.0 size=       0kB time=00:00:00.00 bitrate=N/A speed=   0x    frame=   64 fps= 24 q=0.0 size=       0kB time=00:00:00.00 bitrate=N/A speed=   0x    frame=   67 fps= 12 q=0.0 size=       0kB time=00:00:00.00 bitrate=N/A speed=   0x    frame=   73 fps= 11 q=57.0 size=       1kB time=00:00:00.00 bitrate=5888.0kbits/s speed=0.000157x    frame=   76 fps= 11 q=65.0 size=       1kB time=00:00:00.06 bitrate=  96.5kbits/s speed=0.00845x    frame=   80 fps= 10 q=64.0 size=       1kB time=00:00:00.14 bitrate=  41.8kbits/s speed=0.018x    frame=   82 fps=9.4 q=64.0 size=       1kB time=00:00:00.18 bitrate=  32.5kbits/s speed=0.0208x    frame=   87 fps=9.3 q=64.0 size=       1kB time=00:00:00.28 bitrate=  21.0kbits/s speed=0.03x    frame=   90 fps=8.8 q=64.0 size=       1kB time=00:00:00.34 bitrate=  17.3kbits/s speed=0.0332x    frame=   94 fps=8.6 q=64.0 size=       1kB time=00:00:00.42 bitrate=  14.0kbits/s speed=0.0384x    frame=   98 fps=8.3 q=64.0 size=       1kB time=00:00:00.50 bitrate=  11.8kbits/s speed=0.0423x    frame=  103 fps=8.2 q=64.0 size=       1kB time=00:00:00.60 bitrate=   9.8kbits/s speed=0.0479x    frame=  106 fps=8.0 q=63.0 size=       1kB time=00:00:00.66 bitrate=   8.9kbits/s speed=0.0499x    frame=  110 fps=7.8 q=63.0 size=       1kB time=00:00:00.74 bitrate=   7.9kbits/s speed=0.0529x    frame=  113 fps=7.7 q=63.0 size=       1kB time=00:00:00.80 bitrate=   7.4kbits/s speed=0.0546x    frame=  117 fps=7.6 q=63.0 size=       1kB time=00:00:00.88 bitrate=   6.7kbits/s speed=0.0573x    frame=  121 fps=7.5 q=63.0 size=       1kB time=00:00:00.96 bitrate=   6.1kbits/s speed=0.0597x    frame=  125 fps=7.5 q=63.0 size=       1kB time=00:00:01.04 bitrate=   5.7kbits/s speed=0.0626x    frame=  127 fps=7.3 q=63.0 size=       1kB time=00:00:01.08 bitrate=   5.4kbits/s speed=0.0624x    frame=  131 fps=7.3 q=63.0 size=       1kB time=00:00:01.16 bitrate=   5.1kbits/s speed=0.0645x    frame=  134 fps=7.2 q=63.0 size=       1kB time=00:00:01.22 bitrate=   4.8kbits/s speed=0.0652x    frame=  138 fps=7.2 q=63.0 size=       1kB time=00:00:01.30 bitrate=   4.5kbits/s speed=0.0675x    frame=  142 fps=7.0 q=63.0 size=       1kB time=00:00:01.38 bitrate=   4.3kbits/s speed=0.0681x    frame=  147 fps=7.0 q=63.0 size=       1kB time=00:00:01.48 bitrate=   4.0kbits/s speed=0.07x    frame=  150 fps=6.9 q=62.0 size=       1kB time=00:00:01.54 bitrate=   3.8kbits/s speed=0.0705x    frame=  154 fps=6.8 q=62.0 size=       1kB time=00:00:01.62 bitrate=   3.6kbits/s speed=0.0714x    frame=  158 fps=6.7 q=62.0 size=       1kB time=00:00:01.70 bitrate=   3.5kbits/s speed=0.0722x    frame=  162 fps=6.7 q=62.0 size=       1kB time=00:00:01.78 bitrate=   3.3kbits/s speed=0.0731x    frame=  166 fps=6.6 q=62.0 size=       1kB time=00:00:01.86 bitrate=   3.2kbits/s speed=0.0743x    frame=  169 fps=6.6 q=62.0 size=       1kB time=00:00:01.92 bitrate=   3.1kbits/s speed=0.0747x    frame=  173 fps=6.6 q=62.0 size=       1kB time=00:00:02.00 bitrate=   2.9kbits/s speed=0.076x    frame=  174 fps=6.4 q=62.0 size=       1kB time=00:00:02.02 bitrate=   2.9kbits/s speed=0.0748x    frame=  178 fps=6.4 q=62.0 size=       1kB time=00:00:02.10 bitrate=   2.8kbits/s speed=0.0758x    frame=  182 fps=6.4 q=62.0 size=       1kB time=00:00:02.18 bitrate=   2.7kbits/s speed=0.0771x    frame=  183 fps=6.4 q=62.0 size=       1kB time=00:00:02.20 bitrate=   2.7kbits/s speed=0.0765x    frame=  187 fps=6.4 q=62.0 size=       1kB time=00:00:02.28 bitrate=   2.6kbits/s speed=0.0778x    frame=  190 fps=6.4 q=62.0 size=       1kB time=00:00:02.34 bitrate=   2.5kbits/s speed=0.0783x    frame=  191 fps=6.2 q=62.0 size=       1kB time=00:00:02.36 bitrate=   2.5kbits/s speed=0.0772x    frame=  195 fps=6.2 q=62.0 size=       1kB time=00:00:02.44 bitrate=   2.4kbits/s speed=0.078x    frame=  199 fps=6.2 q=62.0 size=       1kB time=00:00:02.52 bitrate=   2.3kbits/s speed=0.0782x    frame=  202 fps=6.2 q=62.0 size=       1kB time=00:00:02.58 bitrate=   2.3kbits/s speed=0.0786x    frame=  206 fps=6.1 q=62.0 size=       1kB time=00:00:02.66 bitrate=   2.2kbits/s speed=0.0787x    frame=  210 fps=6.1 q=62.0 size=       1kB time=00:00:02.74 bitrate=   2.1kbits/s speed=0.0794x    frame=  214 fps=6.0 q=62.0 size=       1kB time=00:00:02.82 bitrate=   2.1kbits/s speed=0.0795x    frame=  217 fps=6.0 q=62.0 size=       1kB time=00:00:02.88 bitrate=   2.0kbits/s speed=0.0796x    frame=  221 fps=6.0 q=62.0 size=       1kB time=00:00:02.96 bitrate=   2.0kbits/s speed=0.0798x    frame=  225 fps=6.0 q=62.0 size=       1kB time=00:00:03.04 bitrate=   1.9kbits/s speed=0.0806x    frame=  227 fps=5.9 q=62.0 size=       1kB time=00:00:03.08 bitrate=   1.9kbits/s speed=0.0804x    frame=  229 fps=5.9 q=62.0 size=       1kB time=00:00:03.12 bitrate=   1.9kbits/s speed=0.0802x    frame=  233 fps=5.9 q=62.0 size=       1kB time=00:00:03.20 bitrate=   1.8kbits/s speed=0.0807x    frame=  236 fps=5.9 q=62.0 size=       1kB time=00:00:03.26 bitrate=   1.8kbits/s speed=0.0809x    frame=  238 fps=5.8 q=62.0 size=       1kB time=00:00:03.30 bitrate=   1.8kbits/s speed=0.0807x    frame=  243 fps=5.9 q=62.0 size=       1kB time=00:00:03.40 bitrate=   1.7kbits/s speed=0.0819x    frame=  244 fps=5.8 q=62.0 size=       1kB time=00:00:03.42 bitrate=   1.7kbits/s speed=0.0807x    frame=  248 fps=5.8 q=62.0 size=       1kB time=00:00:03.50 bitrate=   1.7kbits/s speed=0.0816x    frame=  250 fps=5.7 q=62.0 size=       1kB time=00:00:03.54 bitrate=   1.7kbits/s speed=0.0814x    frame=  252 fps=5.7 q=62.0 size=       1kB time=00:00:03.58 bitrate=   1.6kbits/s speed=0.0812x    frame=  256 fps=5.7 q=62.0 size=       1kB time=00:00:03.66 bitrate=   1.6kbits/s speed=0.0819x    frame=  259 fps=5.7 q=62.0 size=       1kB time=00:00:03.72 bitrate=   1.6kbits/s speed=0.0819x    frame=  261 fps=5.7 q=61.0 size=       1kB time=00:00:03.76 bitrate=   1.6kbits/s speed=0.0816x    frame=  263 fps=5.6 q=61.0 size=       1kB time=00:00:03.80 bitrate=   1.5kbits/s speed=0.0815x    frame=  267 fps=5.6 q=61.0 size=       1kB time=00:00:03.88 bitrate=   1.5kbits/s speed=0.0818x    frame=  271 fps=5.6 q=61.0 size=       1kB time=00:00:03.96 bitrate=   1.5kbits/s speed=0.082x    frame=  274 fps=5.6 q=61.0 size=       1kB time=00:00:04.02 bitrate=   1.5kbits/s speed=0.0822x    frame=  277 fps=5.6 q=61.0 size=       1kB time=00:00:04.08 bitrate=   1.4kbits/s speed=0.0819x    frame=  280 fps=5.6 q=61.0 size=       1kB time=00:00:04.14 bitrate=   1.4kbits/s speed=0.0823x    frame=  283 fps=5.6 q=61.0 size=       1kB time=00:00:04.20 bitrate=   1.4kbits/s speed=0.0826x    frame=  284 fps=5.5 q=61.0 size=       1kB time=00:00:04.22 bitrate=   1.4kbits/s speed=0.0821x    frame=  286 fps=5.5 q=61.0 size=       1kB time=00:00:04.26 bitrate=   1.4kbits/s speed=0.0821x    frame=  290 fps=5.5 q=61.0 size=       1kB time=00:00:04.34 bitrate=   1.4kbits/s speed=0.0822x    frame=  293 fps=5.5 q=61.0 size=       1kB time=00:00:04.40 bitrate=   1.3kbits/s speed=0.082x    frame=  298 fps=5.5 q=61.0 size=       1kB time=00:00:04.50 bitrate=   1.3kbits/s speed=0.083x    frame=  299 fps=5.4 q=61.0 size=       1kB time=00:00:04.52 bitrate=   1.3kbits/s speed=0.0824x    frame=  301 fps=5.4 q=61.0 size=       1kB time=00:00:04.56 bitrate=   1.3kbits/s speed=0.0821x    frame=  305 fps=5.4 q=61.0 size=       1kB time=00:00:04.64 bitrate=   1.3kbits/s speed=0.0828x    frame=  307 fps=5.4 q=61.0 size=       1kB time=00:00:04.68 bitrate=   1.3kbits/s speed=0.0827x    frame=  308 fps=5.4 q=61.0 size=       1kB time=00:00:04.70 bitrate=   1.3kbits/s speed=0.0822x    frame=  312 fps=5.4 q=61.0 size=       1kB time=00:00:04.78 bitrate=   1.2kbits/s speed=0.0827x    frame=  314 fps=5.4 q=61.0 size=       1kB time=00:00:04.82 bitrate=   1.2kbits/s speed=0.0826x    frame=  317 fps=5.4 q=62.0 size=       1kB time=00:00:04.88 bitrate=   1.2kbits/s speed=0.0827x    frame=  319 fps=5.4 q=62.0 size=       1kB time=00:00:04.92 bitrate=   1.2kbits/s speed=0.0827x    frame=  326 fps=5.4 q=62.0 size=    1262kB time=00:00:05.06 bitrate=2042.3kbits/s speed=0.0838x    frame=  329 fps=5.4 q=62.0 size=    1262kB time=00:00:05.12 bitrate=2018.3kbits/s speed=0.0839x    frame=  333 fps=5.4 q=62.0 size=    1262kB time=00:00:05.20 bitrate=1987.3kbits/s speed=0.0842x    frame=  335 fps=5.4 q=62.0 size=    1262kB time=00:00:05.24 bitrate=1972.1kbits/s speed=0.0841x    frame=  338 fps=5.4 q=62.0 size=    1262kB time=00:00:05.30 bitrate=1949.8kbits/s speed=0.0841x    frame=  341 fps=5.3 q=62.0 size=    1262kB time=00:00:05.36 bitrate=1928.0kbits/s speed=0.084x    frame=  345 fps=5.3 q=62.0 size=    1262kB time=00:00:05.44 bitrate=1899.6kbits/s speed=0.0839x    frame=  348 fps=5.3 q=62.0 size=    1262kB time=00:00:05.50 bitrate=1878.9kbits/s speed=0.0841x    frame=  352 fps=5.3 q=62.0 size=    1262kB time=00:00:05.58 bitrate=1852.0kbits/s speed=0.084x    frame=  356 fps=5.3 q=62.0 size=    1262kB time=00:00:05.66 bitrate=1825.8kbits/s speed=0.0838x    frame=  359 fps=5.3 q=62.0 size=    1262kB time=00:00:05.72 bitrate=1806.7kbits/s speed=0.084x    frame=  362 fps=5.3 q=62.0 size=    1262kB time=00:00:05.78 bitrate=1787.9kbits/s speed=0.0842x    frame=  364 fps=5.2 q=62.0 size=    1262kB time=00:00:05.82 bitrate=1775.6kbits/s speed=0.0839x    frame=  366 fps=5.2 q=62.0 size=    1262kB time=00:00:05.86 bitrate=1763.5kbits/s speed=0.0838x    frame=  369 fps=5.2 q=62.0 size=    1262kB time=00:00:05.92 bitrate=1745.6kbits/s speed=0.084x    frame=  372 fps=5.2 q=62.0 size=    1262kB time=00:00:05.98 bitrate=1728.1kbits/s speed=0.0836x    frame=  376 fps=5.2 q=62.0 size=    1262kB time=00:00:06.06 bitrate=1705.3kbits/s speed=0.0841x    frame=  379 fps=5.2 q=62.0 size=    1262kB time=00:00:06.12 bitrate=1688.6kbits/s speed=0.0836x    frame=  384 fps=5.2 q=62.0 size=    1262kB time=00:00:06.22 bitrate=1661.4kbits/s speed=0.0843x    frame=  385 fps=5.1 q=62.0 size=    1262kB time=00:00:06.24 bitrate=1656.1kbits/s speed=0.0834x    frame=  389 fps=5.2 q=62.0 size=    1262kB time=00:00:06.32 bitrate=1635.2kbits/s speed=0.0838x    frame=  391 fps=5.1 q=62.0 size=    1262kB time=00:00:06.36 bitrate=1624.9kbits/s speed=0.0836x    frame=  394 fps=5.1 q=62.0 size=    1262kB time=00:00:06.42 bitrate=1609.7kbits/s speed=0.0834x    frame=  397 fps=5.1 q=62.0 size=    1262kB time=00:00:06.48 bitrate=1594.8kbits/s speed=0.0836x    frame=  399 fps=5.1 q=62.0 size=    1262kB time=00:00:06.52 bitrate=1585.0kbits/s speed=0.0832x    frame=  403 fps=5.1 q=62.0 size=    1262kB time=00:00:06.60 bitrate=1565.8kbits/s speed=0.0834x    frame=  405 fps=5.1 q=62.0 size=    1262kB time=00:00:06.64 bitrate=1556.4kbits/s speed=0.0834x    frame=  407 fps=5.1 q=62.0 size=    1262kB time=00:00:06.68 bitrate=1547.1kbits/s speed=0.0832x    frame=  410 fps=5.1 q=62.0 size=    1262kB time=00:00:06.74 bitrate=1533.3kbits/s speed=0.0834x    frame=  414 fps=5.1 q=62.0 size=    1262kB time=00:00:06.82 bitrate=1515.3kbits/s speed=0.0832x    frame=  418 fps=5.1 q=62.0 size=    1262kB time=00:00:06.90 bitrate=1497.7kbits/s speed=0.0835x    frame=  421 fps=5.0 q=62.0 size=    1262kB time=00:00:06.96 bitrate=1484.8kbits/s speed=0.0834x    frame=  423 fps=5.0 q=62.0 size=    1262kB time=00:00:07.00 bitrate=1476.3kbits/s speed=0.0833x    frame=  427 fps=5.0 q=62.0 size=    1262kB time=00:00:07.08 bitrate=1459.7kbits/s speed=0.0832x    frame=  431 fps=5.0 q=62.0 size=    1262kB time=00:00:07.16 bitrate=1443.4kbits/s speed=0.0832x    frame=  435 fps=5.0 q=62.0 size=    1262kB time=00:00:07.24 bitrate=1427.4kbits/s speed=0.0832x    frame=  439 fps=5.0 q=62.0 size=    1262kB time=00:00:07.32 bitrate=1411.8kbits/s speed=0.0833x    frame=  442 fps=5.0 q=62.0 size=    1262kB time=00:00:07.38 bitrate=1400.3kbits/s speed=0.0833x    frame=  443 fps=5.0 q=62.0 size=    1262kB time=00:00:07.40 bitrate=1396.5kbits/s speed=0.083x    frame=  446 fps=5.0 q=62.0 size=    1262kB time=00:00:07.46 bitrate=1385.3kbits/s speed=0.0831x    frame=  450 fps=4.9 q=62.0 size=    1262kB time=00:00:07.54 bitrate=1370.6kbits/s speed=0.0829x    frame=  453 fps=5.0 q=62.0 size=    1262kB time=00:00:07.60 bitrate=1359.8kbits/s speed=0.0831x    frame=  456 fps=5.0 q=62.0 size=    1262kB time=00:00:07.66 bitrate=1349.2kbits/s speed=0.0833x    frame=  458 fps=4.9 q=62.0 size=    1262kB time=00:00:07.70 bitrate=1342.1kbits/s speed=0.0828x    frame=  462 fps=4.9 q=62.0 size=    1262kB time=00:00:07.78 bitrate=1328.3kbits/s speed=0.0829x    frame=  465 fps=4.9 q=62.0 size=    1262kB time=00:00:07.84 bitrate=1318.2kbits/s speed=0.0828x    frame=  467 fps=4.9 q=62.0 size=    1262kB time=00:00:07.88 bitrate=1311.5kbits/s speed=0.0827x    frame=  470 fps=4.9 q=62.0 size=    1262kB time=00:00:07.94 bitrate=1301.6kbits/s speed=0.0827x    frame=  472 fps=4.9 q=62.0 size=    1262kB time=00:00:07.98 bitrate=1295.1kbits/s speed=0.0826x    frame=  474 fps=4.9 q=62.0 size=    1262kB time=00:00:08.02 bitrate=1288.6kbits/s speed=0.0826x    frame=  476 fps=4.9 q=62.0 size=    1262kB time=00:00:08.06 bitrate=1282.2kbits/s speed=0.0825x    frame=  478 fps=4.9 q=62.0 size=    1262kB time=00:00:08.10 bitrate=1275.9kbits/s speed=0.0825x    frame=  482 fps=4.9 q=62.0 size=    1262kB time=00:00:08.18 bitrate=1263.4kbits/s speed=0.0824x    frame=  485 fps=4.8 q=62.0 size=    1262kB time=00:00:08.24 bitrate=1254.2kbits/s speed=0.0823x    frame=  489 fps=4.9 q=62.0 size=    1262kB time=00:00:08.32 bitrate=1242.1kbits/s speed=0.0826x    frame=  491 fps=4.8 q=62.0 size=    1262kB time=00:00:08.36 bitrate=1236.2kbits/s speed=0.0822x    frame=  493 fps=4.8 q=62.0 size=    1262kB time=00:00:08.40 bitrate=1230.3kbits/s speed=0.082x    frame=  497 fps=4.8 q=62.0 size=    1262kB time=00:00:08.48 bitrate=1218.7kbits/s speed=0.0821x    frame=  500 fps=4.8 q=62.0 size=    1262kB time=00:00:08.54 bitrate=1210.1kbits/s speed=0.0818x    frame=  500 fps=4.1 q=-1.0 Lsize=    2546kB time=00:00:09.94 bitrate=2097.7kbits/s speed=0.0823x    
video:2541kB audio:0kB subtitle:0kB other streams:0kB global headers:0kB muxing overhead: 0.166465%
bench: utime=453.336s
bench: maxrss=2509704kB
[libx264 @ 0x43d41c0] frame I:2     Avg QP:47.47  size: 69486
[libx264 @ 0x43d41c0] frame P:134   Avg QP:50.95  size: 14502
[libx264 @ 0x43d41c0] frame B:364   Avg QP:50.97  size:  1427
[libx264 @ 0x43d41c0] consecutive B-frames:  0.4%  2.8% 14.4% 82.4%
[libx264 @ 0x43d41c0] mb I  I16..4: 62.6% 36.5%  0.9%
[libx264 @ 0x43d41c0] mb P  I16..4: 19.6%  8.1%  0.0%  P16..4: 10.2%  0.1%  0.8%  0.0%  0.0%    skip:61.3%
[libx264 @ 0x43d41c0] mb B  I16..4:  0.0%  0.0%  0.0%  B16..8:  5.0%  0.0%  0.0%  direct: 0.0%  skip:95.0%  L0:23.8% L1:76.2% BI: 0.0%
[libx264 @ 0x43d41c0] final ratefactor: 53.87
[libx264 @ 0x43d41c0] 8x8 transform intra:29.6% inter:97.0%
[libx264 @ 0x43d41c0] direct mvs  spatial:98.6% temporal:1.4%
[libx264 @ 0x43d41c0] coded y,uvDC,uvAC intra: 1.7% 26.2% 0.4% inter: 0.0% 0.4% 0.0%
[libx264 @ 0x43d41c0] i16 v,h,dc,p: 80% 15%  2%  2%
[libx264 @ 0x43d41c0] i8 v,h,dc,ddl,ddr,vr,hd,vl,hu:  1%  1% 91%  1%  1%  1%  1%  1%  1%
[libx264 @ 0x43d41c0] i4 v,h,dc,ddl,ddr,vr,hd,vl,hu:  6%  4%  3% 16% 15% 13% 14% 12% 17%
[libx264 @ 0x43d41c0] i8c dc,h,v,p: 94%  3%  3%  0%
[libx264 @ 0x43d41c0] Weighted P-Frames: Y:0.7% UV:0.0%
[libx264 @ 0x43d41c0] ref P L0: 54.5%  0.7% 15.5%  7.8%  5.2%  6.8%  5.7%  3.9%  0.0%
[libx264 @ 0x43d41c0] ref B L0: 86.7%  3.8%  4.1%  1.4%  1.9%  0.9%  1.2%
[libx264 @ 0x43d41c0] ref B L1: 98.5%  1.5%
[libx264 @ 0x43d41c0] kb/s:2081.32
